HIERARCHY
ROOT mixamorig1:Hips
{
	OFFSET -0.000023 99.754364 3.007882
	CHANNELS 6 Xposition Yposition Zposition Xrotation Yrotation Zrotation
	JOINT mixamorig1:Spine
	{
		OFFSET 0.000000 9.717224 -1.180207
		CHANNELS 6 Xposition Yposition Zposition Xrotation Yrotation Zrotation
		JOINT mixamorig1:Spine1
		{
			OFFSET 0.000000 11.336823 -1.376932
			CHANNELS 6 Xposition Yposition Zposition Xrotation Yrotation Zrotation
			JOINT mixamorig1:Spine2
			{
				OFFSET 0.000000 12.956345 -1.573653
				CHANNELS 6 Xposition Yposition Zposition Xrotation Yrotation Zrotation
				JOINT mixamorig1:Neck
				{
					OFFSET 0.000000 14.575974 -1.770437
					CHANNELS 6 Xposition Yposition Zposition Xrotation Yrotation Zrotation
					JOINT mixamorig1:Head
					{
						OFFSET 0.000000 6.720200 1.972157
						CHANNELS 6 Xposition Yposition Zposition Xrotation Yrotation Zrotation
						JOINT mixamorig1:HeadTop_End
						{
							OFFSET 0.000000 20.999847 6.162764
							CHANNELS 6 Xposition Yposition Zposition Xrotation Yrotation Zrotation
							End Site
							{
								OFFSET 0.000000 21.885452 0.000000
							}
						}
					}
				}
				JOINT mixamorig1:LeftShoulder
				{
					OFFSET 6.140116 12.877853 -1.799544
					CHANNELS 6 Xposition Yposition Zposition Xrotation Yrotation Zrotation
					JOINT mixamorig1:LeftArm
					{
						OFFSET 12.545031 -3.431427 -0.058010
						CHANNELS 6 Xposition Yposition Zposition Xrotation Yrotation Zrotation
						JOINT mixamorig1:LeftForeArm
						{
							OFFSET 25.447281 -1.876373 -1.505625
							CHANNELS 6 Xposition Yposition Zposition Xrotation Yrotation Zrotation
							JOINT mixamorig1:LeftHand
							{
								OFFSET 23.367504 0.877640 0.971305
								CHANNELS 6 Xposition Yposition Zposition Xrotation Yrotation Zrotation
								JOINT mixamorig1:LeftHandThumb1
								{
									OFFSET 3.575478 -1.761887 3.039434
									CHANNELS 6 Xposition Yposition Zposition Xrotation Yrotation Zrotation
									JOINT mixamorig1:LeftHandThumb2
									{
										OFFSET 2.860405 -1.409454 2.431552
										CHANNELS 6 Xposition Yposition Zposition Xrotation Yrotation Zrotation
										JOINT mixamorig1:LeftHandThumb3
										{
											OFFSET 2.578941 -1.801514 1.750709
											CHANNELS 6 Xposition Yposition Zposition Xrotation Yrotation Zrotation
											JOINT mixamorig1:LeftHandThumb4
											{
												OFFSET 2.408989 -1.461151 1.064221
												CHANNELS 6 Xposition Yposition Zposition Xrotation Yrotation Zrotation
												End Site
												{
													OFFSET 2.176476 -1.503357 1.440013
												}
											}
										}
									}
								}
								JOINT mixamorig1:LeftHandIndex1
								{
									OFFSET 11.357018 -1.306473 4.439679
									CHANNELS 6 Xposition Yposition Zposition Xrotation Yrotation Zrotation
									JOINT mixamorig1:LeftHandIndex2
									{
										OFFSET 3.215240 -0.390930 0.624045
										CHANNELS 6 Xposition Yposition Zposition Xrotation Yrotation Zrotation
										JOINT mixamorig1:LeftHandIndex3
										{
											OFFSET 2.938980 -0.735489 0.560646
											CHANNELS 6 Xposition Yposition Zposition Xrotation Yrotation Zrotation
											JOINT mixamorig1:LeftHandIndex4
											{
												OFFSET 2.552437 -0.779205 0.483288
												CHANNELS 6 Xposition Yposition Zposition Xrotation Yrotation Zrotation
												End Site
												{
													OFFSET 2.555870 -0.777603 0.467434
												}
											}
										}
									}
								}
								JOINT mixamorig1:LeftHandMiddle1
								{
									OFFSET 12.195602 -0.657242 2.108765
									CHANNELS 6 Xposition Yposition Zposition Xrotation Yrotation Zrotation
									JOINT mixamorig1:LeftHandMiddle2
									{
										OFFSET 3.379944 -0.547394 0.236206
										CHANNELS 6 Xposition Yposition Zposition Xrotation Yrotation Zrotation
										JOINT mixamorig1:LeftHandMiddle3
										{
											OFFSET 3.043900 -0.829651 0.195068
											CHANNELS 6 Xposition Yposition Zposition Xrotation Yrotation Zrotation
											JOINT mixamorig1:LeftHandMiddle4
											{
												OFFSET 2.806625 -0.600723 0.188473
												CHANNELS 6 Xposition Yposition Zposition Xrotation Yrotation Zrotation
												End Site
												{
													OFFSET 2.806618 -0.600739 0.188510
												}
											}
										}
									}
								}
								JOINT mixamorig1:LeftHandRing1
								{
									OFFSET 12.563576 -0.458878 -0.154891
									CHANNELS 6 Xposition Yposition Zposition Xrotation Yrotation Zrotation
									JOINT mixamorig1:LeftHandRing2
									{
										OFFSET 2.596565 -0.829819 0.032336
										CHANNELS 6 Xposition Yposition Zposition Xrotation Yrotation Zrotation
										JOINT mixamorig1:LeftHandRing3
										{
											OFFSET 2.548286 -0.608398 0.044838
											CHANNELS 6 Xposition Yposition Zposition Xrotation Yrotation Zrotation
											JOINT mixamorig1:LeftHandRing4
											{
												OFFSET 2.167870 -0.507812 0.038965
												CHANNELS 6 Xposition Yposition Zposition Xrotation Yrotation Zrotation
												End Site
												{
													OFFSET 2.167732 -0.508163 0.042114
												}
											}
										}
									}
								}
								JOINT mixamorig1:LeftHandPinky1
								{
									OFFSET 11.341652 -0.310532 -2.253323
									CHANNELS 6 Xposition Yposition Zposition Xrotation Yrotation Zrotation
									JOINT mixamorig1:LeftHandPinky2
									{
										OFFSET 2.648827 -0.669128 -0.120024
										CHANNELS 6 Xposition Yposition Zposition Xrotation Yrotation Zrotation
										JOINT mixamorig1:LeftHandPinky3
										{
											OFFSET 2.075249 -0.703857 -0.105192
											CHANNELS 6 Xposition Yposition Zposition Xrotation Yrotation Zrotation
											JOINT mixamorig1:LeftHandPinky4
											{
												OFFSET 1.850784 -0.684036 -0.097376
												CHANNELS 6 Xposition Yposition Zposition Xrotation Yrotation Zrotation
												End Site
												{
													OFFSET 1.850731 -0.683411 -0.102854
												}
											}
										}
									}
								}
							}
						}
					}
				}
				JOINT mixamorig1:RightShoulder
				{
					OFFSET -6.140133 12.877823 -1.741387
					CHANNELS 6 Xposition Yposition Zposition Xrotation Yrotation Zrotation
					JOINT mixamorig1:RightArm
					{
						OFFSET -12.545002 -3.431366 0.058123
						CHANNELS 6 Xposition Yposition Zposition Xrotation Yrotation Zrotation
						JOINT mixamorig1:RightForeArm
						{
							OFFSET -25.447330 -1.876465 -1.671036
							CHANNELS 6 Xposition Yposition Zposition Xrotation Yrotation Zrotation
							JOINT mixamorig1:RightHand
							{
								OFFSET -23.367435 0.877640 0.912149
								CHANNELS 6 Xposition Yposition Zposition Xrotation Yrotation Zrotation
								JOINT mixamorig1:RightHandThumb1
								{
									OFFSET -3.655281 -1.787811 3.110017
									CHANNELS 6 Xposition Yposition Zposition Xrotation Yrotation Zrotation
									JOINT mixamorig1:RightHandThumb2
									{
										OFFSET -2.924309 -1.430252 2.488113
										CHANNELS 6 Xposition Yposition Zposition Xrotation Yrotation Zrotation
										JOINT mixamorig1:RightHandThumb3
										{
											OFFSET -2.528549 -1.776962 1.706924
											CHANNELS 6 Xposition Yposition Zposition Xrotation Yrotation Zrotation
											JOINT mixamorig1:RightHandThumb4
											{
												OFFSET -2.443375 -1.162323 1.073468
												CHANNELS 6 Xposition Yposition Zposition Xrotation Yrotation Zrotation
												End Site
												{
													OFFSET -2.204521 -1.202744 1.472025
												}
											}
										}
									}
								}
								JOINT mixamorig1:RightHandIndex1
								{
									OFFSET -11.888382 -1.247833 4.755188
									CHANNELS 6 Xposition Yposition Zposition Xrotation Yrotation Zrotation
									JOINT mixamorig1:RightHandIndex2
									{
										OFFSET -3.042244 -0.516434 0.442817
										CHANNELS 6 Xposition Yposition Zposition Xrotation Yrotation Zrotation
										JOINT mixamorig1:RightHandIndex3
										{
											OFFSET -2.738869 -0.708374 0.392164
											CHANNELS 6 Xposition Yposition Zposition Xrotation Yrotation Zrotation
											JOINT mixamorig1:RightHandIndex4
											{
												OFFSET -2.432571 -0.620773 0.348507
												CHANNELS 6 Xposition Yposition Zposition Xrotation Yrotation Zrotation
												End Site
												{
													OFFSET -2.433441 -0.620270 0.343348
												}
											}
										}
									}
								}
								JOINT mixamorig1:RightHandMiddle1
								{
									OFFSET -12.008347 -0.748550 2.098396
									CHANNELS 6 Xposition Yposition Zposition Xrotation Yrotation Zrotation
									JOINT mixamorig1:RightHandMiddle2
									{
										OFFSET -3.442291 -0.415817 0.287318
										CHANNELS 6 Xposition Yposition Zposition Xrotation Yrotation Zrotation
										JOINT mixamorig1:RightHandMiddle3
										{
											OFFSET -3.106178 -0.837677 0.240102
											CHANNELS 6 Xposition Yposition Zposition Xrotation Yrotation Zrotation
											JOINT mixamorig1:RightHandMiddle4
											{
												OFFSET -2.855728 -0.604996 0.227592
												CHANNELS 6 Xposition Yposition Zposition Xrotation Yrotation Zrotation
												End Site
												{
													OFFSET -2.855972 -0.604736 0.225131
												}
											}
										}
									}
								}
								JOINT mixamorig1:RightHandRing1
								{
									OFFSET -12.328026 -0.608994 -0.015787
									CHANNELS 6 Xposition Yposition Zposition Xrotation Yrotation Zrotation
									JOINT mixamorig1:RightHandRing2
									{
										OFFSET -2.763496 -0.569153 -0.029507
										CHANNELS 6 Xposition Yposition Zposition Xrotation Yrotation Zrotation
										JOINT mixamorig1:RightHandRing3
										{
											OFFSET -2.573975 -0.772354 -0.042469
											CHANNELS 6 Xposition Yposition Zposition Xrotation Yrotation Zrotation
											JOINT mixamorig1:RightHandRing4
											{
												OFFSET -2.323860 -0.456833 -0.023427
												CHANNELS 6 Xposition Yposition Zposition Xrotation Yrotation Zrotation
												End Site
												{
													OFFSET -2.323814 -0.457275 -0.019363
												}
											}
										}
									}
								}
								JOINT mixamorig1:RightHandPinky1
								{
									OFFSET -11.463135 -0.329407 -2.202621
									CHANNELS 6 Xposition Yposition Zposition Xrotation Yrotation Zrotation
									JOINT mixamorig1:RightHandPinky2
									{
										OFFSET -2.569016 -0.599854 -0.108848
										CHANNELS 6 Xposition Yposition Zposition Xrotation Yrotation Zrotation
										JOINT mixamorig1:RightHandPinky3
										{
											OFFSET -2.016190 -0.737000 -0.102787
											CHANNELS 6 Xposition Yposition Zposition Xrotation Yrotation Zrotation
											JOINT mixamorig1:RightHandPinky4
											{
												OFFSET -1.796242 -0.576553 -0.085258
												CHANNELS 6 Xposition Yposition Zposition Xrotation Yrotation Zrotation
												End Site
												{
													OFFSET -1.796211 -0.576279 -0.087722
												}
											}
										}
									}
								}
							}
						}
					}
				}
			}
		}
	}
	JOINT mixamorig1:LeftUpLeg
	{
		OFFSET 8.078197 -5.402374 -0.535866
		CHANNELS 6 Xposition Yposition Zposition Xrotation Yrotation Zrotation
		JOINT mixamorig1:LeftLeg
		{
			OFFSET 3.743074 -42.540520 -2.695465
			CHANNELS 6 Xposition Yposition Zposition Xrotation Yrotation Zrotation
			JOINT mixamorig1:LeftFoot
			{
				OFFSET 3.359008 -41.940849 -2.882252
				CHANNELS 6 Xposition Yposition Zposition Xrotation Yrotation Zrotation
				JOINT mixamorig1:LeftToeBase
				{
					OFFSET 1.133368 -9.116440 13.321875
					CHANNELS 6 Xposition Yposition Zposition Xrotation Yrotation Zrotation
					JOINT mixamorig1:LeftToe_End
					{
						OFFSET 0.591574 -0.054443 6.177378
						CHANNELS 3 Xrotation Yrotation Zrotation
						End Site
						{
							OFFSET 0.591574 -0.054443 6.177376
						}
					}
				}
			}
		}
	}
	JOINT mixamorig1:RightUpLeg
	{
		OFFSET -8.078202 -5.402405 -0.751774
		CHANNELS 6 Xposition Yposition Zposition Xrotation Yrotation Zrotation
		JOINT mixamorig1:RightLeg
		{
			OFFSET -3.743069 -42.540482 -2.464523
			CHANNELS 3 Xrotation Yrotation Zrotation
			JOINT mixamorig1:RightFoot
			{
				OFFSET -3.359002 -41.940781 -2.968981
				CHANNELS 3 Xrotation Yrotation Zrotation
				JOINT mixamorig1:RightToeBase
				{
					OFFSET -1.133408 -9.116801 13.416486
					CHANNELS 6 Xposition Yposition Zposition Xrotation Yrotation Zrotation
					JOINT mixamorig1:RightToe_End
					{
						OFFSET -0.591589 -0.054615 6.151405
						CHANNELS 3 Xrotation Yrotation Zrotation
						End Site
						{
							OFFSET -0.591589 -0.054615 6.151402
						}
					}
				}
			}
		}
	}
}
MOTION
Frames: 3
Frame Time: 0.033333
-89.307838 1093.403687 -127.590477 190.878051 16.620842 -184.111997 -0.000010 9.717289 -1.180180 4.246390 -1.986996 0.017058 0.000005 11.337051 -1.376936 5.069535 -0.883343 -0.041317 0.000010 12.956390 -1.573635 8.872284 -1.546328 -0.020971 0.000003 14.576047 -1.770416 43.042025 -3.893473 8.817726 -0.000002 6.720297 1.972115 20.376215 -7.106551 16.349202 0.000012 20.999786 6.162889 -0.000001 -0.000001 0.000002 6.140146 12.878039 -1.799582 16.756679 -5.717083 -9.546903 12.545084 -3.431270 -0.058036 -20.567721 0.119596 -64.228695 25.447376 -1.876371 -1.505624 8.002407 -14.991644 0.920630 23.367586 0.877586 0.971325 6.908802 3.957679 5.028577 3.575596 -1.761838 3.039449 -0.000002 -0.000001 -0.000002 2.860470 -1.409503 2.431550 -0.000000 0.000003 0.000002 2.578893 -1.801555 1.750781 -0.000003 0.000001 -0.000002 2.408962 -1.461150 1.064245 -0.000005 0.000007 0.000002 11.357143 -1.306431 4.439695 -0.000001 -0.000002 -0.000002 3.215302 -0.390945 0.624053 0.000000 -0.000000 -0.000000 2.939034 -0.735458 0.560634 -0.000006 0.000001 -0.000000 2.552414 -0.779190 0.483273 0.000003 -0.000001 0.000003 12.195578 -0.657211 2.108788 -0.000000 -0.000000 -0.000002 3.379977 -0.547361 0.236226 -0.000003 -0.000000 0.000002 3.043903 -0.829682 0.195066 -0.000000 -0.000001 -0.000001 2.806661 -0.600737 0.188493 0.000002 -0.000002 0.000001 12.563592 -0.458819 -0.154866 0.000000 -0.000000 -0.000000 2.596507 -0.829820 0.032341 0.000004 -0.000000 -0.000001 2.548253 -0.608324 0.044848 -0.000004 0.000001 0.000001 2.167831 -0.507828 0.038962 -0.000001 0.000000 0.000000 11.341697 -0.310488 -2.253305 -0.000002 0.000001 -0.000003 2.648877 -0.669134 -0.120024 -0.000004 0.000001 -0.000002 2.075262 -0.703916 -0.105181 -0.000002 0.000000 0.000001 1.850782 -0.684018 -0.097385 -0.000005 0.000002 0.000001 -6.140171 12.878046 -1.741428 9.484188 6.180443 9.121055 -12.544968 -3.431187 0.058088 -8.151079 -9.225536 71.396247 -25.447268 -1.876432 -1.670993 20.765614 16.945774 -8.238203 -23.367682 0.877587 0.912121 23.919836 -0.537730 -9.550935 -3.655413 -1.787801 3.110046 -0.000002 0.000005 0.000004 -2.924354 -1.430254 2.488195 -0.000000 -0.000001 0.000003 -2.528522 -1.777038 1.706917 0.000004 0.000002 -0.000005 -2.443349 -1.162367 1.073466 -0.000000 0.000002 -0.000001 -11.888498 -1.247849 4.755215 0.000000 0.000000 0.000001 -3.042248 -0.516465 0.442831 -0.000002 0.000000 -0.000001 -2.738888 -0.708369 0.392173 0.000001 0.000000 -0.000002 -2.432561 -0.620791 0.348493 0.000000 -0.000001 -0.000001 -12.008436 -0.748537 2.098420 -0.000000 0.000001 0.000002 -3.442320 -0.415800 0.287329 0.000001 -0.000000 -0.000001 -3.106087 -0.837649 0.240080 0.000001 -0.000001 -0.000003 -2.855562 -0.604984 0.227593 0.000002 -0.000001 0.000001 -12.328253 -0.609075 -0.015749 -0.000001 -0.000000 0.000005 -2.763691 -0.569181 -0.029514 -0.000001 -0.000000 -0.000002 -2.573979 -0.772354 -0.042480 0.000001 0.000001 -0.000001 -2.323883 -0.456815 -0.023419 0.000001 0.000001 0.000003 -11.463178 -0.329378 -2.202608 -0.000000 -0.000000 0.000002 -2.569138 -0.599869 -0.108844 0.000002 0.000001 0.000000 -2.016209 -0.737033 -0.102789 0.000000 -0.000000 -0.000001 -1.796159 -0.576538 -0.085266 0.000002 0.000000 0.000001 8.078214 -5.402265 -0.535828 6.700176 19.248054 1.997661 3.743074 -42.540771 -2.695473 21.299846 -0.674770 1.806275 3.359062 -41.940884 -2.882203 -13.503833 -0.988267 -0.031201 1.133353 -9.116448 13.321913 0.000041 -0.000038 -0.000181 -0.000001 0.000000 0.000000 -8.078197 -5.402619 -0.751781 -15.768849 -14.825825 -1.219374 40.931589 -1.574502 2.084958 -4.735387 -0.467172 4.670414 -1.133439 -9.116869 13.416404 0.000048 0.000028 -0.000139 0.000001 -0.000002 0.000001 
-89.047745 1093.242676 -128.917648 190.854446 17.313934 -183.951215 -0.000033 9.717332 -1.180218 4.243528 -2.134177 0.045711 -0.000006 11.336950 -1.376913 5.068003 -0.949442 -0.032193 -0.000016 12.956181 -1.573660 8.869857 -1.661371 -0.001187 -0.000006 14.575916 -1.770448 43.009114 -3.936196 8.857677 -0.000055 6.720356 1.972238 20.323786 -7.188576 16.423152 0.000010 20.999802 6.162885 -0.000001 0.000001 -0.000003 6.140108 12.877839 -1.799551 16.678748 -5.734558 -9.508895 12.545033 -3.431351 -0.058011 -20.861978 -0.324461 -63.902300 25.447306 -1.876313 -1.505619 7.227751 -14.979494 0.933718 23.367416 0.877634 0.971325 6.623756 4.062039 5.196856 3.575498 -1.761887 3.039443 -0.000004 -0.000000 0.000001 2.860439 -1.409457 2.431609 -0.000001 -0.000003 0.000001 2.578900 -1.801451 1.750696 -0.000002 0.000004 0.000001 2.409081 -1.461168 1.064154 0.000004 0.000006 -0.000000 11.356996 -1.306455 4.439695 -0.000000 -0.000002 -0.000000 3.215272 -0.390947 0.624067 0.000004 0.000000 0.000003 2.938924 -0.735488 0.560634 -0.000004 0.000003 -0.000002 2.552392 -0.779176 0.483286 -0.000004 0.000001 -0.000000 12.195578 -0.657223 2.108767 -0.000000 -0.000001 -0.000002 3.379910 -0.547408 0.236197 0.000002 -0.000001 -0.000002 3.043874 -0.829638 0.195063 0.000003 -0.000001 0.000001 2.806508 -0.600707 0.188456 -0.000002 -0.000000 0.000001 12.563653 -0.458881 -0.154874 -0.000004 -0.000001 -0.000000 2.596475 -0.829773 0.032342 0.000002 -0.000001 -0.000000 2.548333 -0.608428 0.044822 0.000003 0.000001 -0.000001 2.167644 -0.507811 0.038961 0.000003 -0.000002 0.000002 11.341701 -0.310519 -2.253317 -0.000004 -0.000001 -0.000001 2.648670 -0.669165 -0.120020 -0.000005 0.000002 0.000002 2.075159 -0.703837 -0.105196 -0.000002 -0.000000 0.000002 1.850829 -0.683955 -0.097368 -0.000003 -0.000000 0.000001 -6.140167 12.877774 -1.741396 9.322074 6.068346 9.202444 -12.545034 -3.431397 0.058128 -7.998785 -9.608290 71.415256 -25.447361 -1.876442 -1.671034 20.317354 16.004154 -7.941420 -23.367632 0.877584 0.912136 23.361052 -0.497469 -10.107070 -3.655225 -1.787784 3.110014 -0.000001 0.000001 0.000002 -2.924323 -1.430190 2.488113 0.000002 -0.000003 0.000006 -2.528499 -1.776936 1.706933 0.000002 0.000000 -0.000005 -2.443326 -1.162321 1.073549 -0.000003 0.000001 -0.000004 -11.888367 -1.247880 4.755173 0.000001 -0.000002 -0.000000 -3.042069 -0.516409 0.442779 -0.000001 -0.000000 0.000000 -2.739002 -0.708402 0.392171 -0.000000 0.000001 0.000002 -2.432812 -0.620822 0.348498 -0.000002 -0.000001 0.000002 -12.008295 -0.748524 2.098385 -0.000000 -0.000001 0.000001 -3.442261 -0.415804 0.287323 0.000001 -0.000001 0.000000 -3.106160 -0.837651 0.240118 -0.000000 -0.000000 -0.000001 -2.855749 -0.604983 0.227608 -0.000001 -0.000001 -0.000001 -12.327958 -0.609012 -0.015799 -0.000001 -0.000001 0.000003 -2.763599 -0.569184 -0.029514 -0.000003 -0.000000 -0.000002 -2.573897 -0.772296 -0.042479 -0.000001 -0.000000 -0.000000 -2.323697 -0.456802 -0.023417 0.000001 -0.000000 -0.000001 -11.463147 -0.329425 -2.202634 0.000002 -0.000000 0.000002 -2.568890 -0.599813 -0.108867 0.000001 0.000001 -0.000001 -2.016053 -0.736969 -0.102800 -0.000001 0.000000 0.000000 -1.796163 -0.576536 -0.085263 0.000001 -0.000000 0.000002 8.078197 -5.402326 -0.535869 7.820392 19.595099 1.575732 3.743074 -42.540485 -2.695446 21.193693 -0.241640 1.696309 3.359017 -41.941021 -2.882182 -14.287140 -0.979220 -0.184691 1.133386 -9.116496 13.321768 0.000043 -0.000036 -0.000183 0.000000 0.000001 0.000000 -8.078218 -5.402415 -0.751772 -15.232935 -15.068408 -0.895120 35.342783 -3.785605 2.437434 -5.168621 -0.378622 5.790915 -1.133490 -9.116881 13.416451 0.000044 0.000007 -0.000136 -0.000001 -0.000000 0.000000 
-88.756355 1093.037476 -130.281830 190.885237 18.069911 -183.776417 -0.000002 9.717195 -1.180183 4.222741 -2.259208 0.071315 -0.000003 11.336843 -1.376909 5.058506 -1.005671 -0.023785 0.000013 12.956465 -1.573640 8.853429 -1.759178 0.016682 0.000004 14.576125 -1.770422 43.001464 -3.989544 8.856412 -0.000011 6.720147 1.972172 20.316505 -7.287500 16.421795 0.000004 20.999878 6.162740 0.000001 0.000000 0.000001 6.140152 12.877802 -1.799526 16.546690 -5.749498 -9.466905 12.545044 -3.431365 -0.058065 -21.014604 -0.733810 -63.632399 25.447330 -1.876390 -1.505645 6.429988 -14.875684 0.914812 23.367487 0.877566 0.971382 6.148329 4.161074 5.479802 3.575357 -1.761948 3.039398 0.000001 0.000001 0.000003 2.860367 -1.409487 2.431575 0.000001 -0.000003 0.000003 2.578801 -1.801508 1.750749 -0.000004 -0.000002 0.000001 2.408951 -1.461079 1.064177 -0.000004 0.000004 -0.000000 11.356960 -1.306519 4.439638 0.000000 -0.000003 0.000002 3.215294 -0.390942 0.624035 -0.000006 -0.000001 0.000003 2.938851 -0.735536 0.560663 -0.000003 0.000002 -0.000000 2.552453 -0.779297 0.483273 -0.000004 0.000000 -0.000001 12.195500 -0.657290 2.108731 -0.000001 -0.000001 0.000001 3.379905 -0.547393 0.236235 0.000005 0.000000 0.000000 3.043993 -0.829728 0.195038 -0.000001 -0.000000 -0.000001 2.806670 -0.600659 0.188495 -0.000003 -0.000000 0.000000 12.563538 -0.458974 -0.154931 -0.000002 -0.000001 0.000003 2.596417 -0.829761 0.032353 0.000005 -0.000001 0.000001 2.548357 -0.608472 0.044842 -0.000001 0.000000 -0.000001 2.167920 -0.507857 0.038977 -0.000003 0.000001 0.000001 11.341616 -0.310567 -2.253359 -0.000001 -0.000001 0.000002 2.648758 -0.669071 -0.120013 -0.000005 0.000001 -0.000000 2.075171 -0.703824 -0.105192 0.000005 -0.000002 0.000004 1.850580 -0.684029 -0.097370 -0.000004 0.000000 0.000002 -6.140153 12.877812 -1.741399 9.144826 5.974142 9.253166 -12.545094 -3.431379 0.058141 -7.801259 -9.981397 71.414081 -25.447090 -1.876456 -1.671031 19.741333 15.025436 -7.576158 -23.367405 0.877644 0.912152 23.006095 -0.534629 -10.494502 -3.655313 -1.787843 3.110013 0.000004 0.000002 -0.000003 -2.924379 -1.430330 2.488112 0.000002 -0.000002 -0.000002 -2.528423 -1.776951 1.706945 0.000002 -0.000000 -0.000002 -2.443494 -1.162297 1.073471 -0.000001 0.000006 -0.000004 -11.888373 -1.247876 4.755177 -0.000001 -0.000001 -0.000004 -3.042155 -0.516445 0.442834 -0.000002 0.000000 0.000001 -2.738933 -0.708385 0.392165 -0.000000 0.000000 -0.000002 -2.432582 -0.620761 0.348502 -0.000002 -0.000001 -0.000002 -12.008248 -0.748520 2.098375 0.000001 -0.000000 0.000000 -3.442086 -0.415817 0.287309 -0.000000 -0.000001 -0.000003 -3.106164 -0.837706 0.240079 0.000000 -0.000001 0.000001 -2.855578 -0.605010 0.227596 -0.000001 0.000001 0.000001 -12.327939 -0.609006 -0.015799 -0.000003 -0.000001 0.000002 -2.763592 -0.569194 -0.029484 0.000000 -0.000000 -0.000002 -2.573950 -0.772308 -0.042475 0.000002 0.000000 0.000002 -2.323991 -0.456845 -0.023436 0.000002 0.000000 0.000000 -11.463069 -0.329374 -2.202630 0.000002 0.000000 0.000001 -2.568989 -0.599902 -0.108851 0.000002 -0.000000 -0.000002 -2.016183 -0.737045 -0.102803 -0.000000 0.000000 0.000000 -1.796316 -0.576556 -0.085271 -0.000002 -0.000000 0.000002 8.078216 -5.402740 -0.535864 9.026484 19.757613 1.093822 3.743099 -42.540550 -2.695452 21.142548 0.408846 1.506159 3.359032 -41.940849 -2.882247 -15.107130 -0.883703 -0.407730 1.133384 -9.116503 13.321822 0.000062 -0.000042 -0.000180 0.000001 0.000001 0.000000 -8.078191 -5.402468 -0.751786 -14.235806 -15.855034 -0.456749 29.406925 -7.368020 2.721477 -4.997701 0.053070 6.822827 -1.133409 -9.116815 13.416485 0.000031 0.000014 -0.000116 -0.000000 0.000001 0.000001 
